<svg width="181" height="44" viewBox="0 0 181 44" fill="none" xmlns="http://www.w3.org/2000/svg">
<path d="M33.8807 22C30.3263 25.9713 25.1609 28.4706 19.4118 28.4706C13.6627 28.4706 8.4973 25.9713 4.94287 22C8.4973 18.0287 13.6627 15.5294 19.4118 15.5294C25.1609 15.5294 30.3263 18.0287 33.8807 22Z" fill="#FFF7ED"/>
<path fill-rule="evenodd" clip-rule="evenodd" d="M0 34.9412C0 24.2204 8.69094 15.5294 19.4118 15.5294C13.6626 15.5294 8.4973 18.0287 4.94288 22C8.4973 25.9713 13.6627 28.4706 19.4118 28.4706C25.1609 28.4706 30.3263 25.9713 33.8807 22C36.9545 25.4343 38.8235 29.9695 38.8235 34.9412V42.2745C38.8235 43.2275 38.051 44 37.098 44H1.72549C0.772528 44 0 43.2275 0 42.2745V34.9412ZM33.8807 22C33.8807 22 33.8807 22 33.8807 22Z" fill="#FED7AA"/>
<path fill-rule="evenodd" clip-rule="evenodd" d="M12.1306 27.0589C9.3589 25.9366 6.90535 24.1926 4.94288 22C8.4973 18.0287 13.6627 15.5294 19.4118 15.5294C25.1609 15.5294 30.3263 18.0287 33.8807 22C33.8807 22 33.8807 22 33.8807 22C36.9545 18.5657 38.8235 14.0305 38.8235 9.05883V1.72549C38.8235 0.772532 38.051 3.24321e-06 37.098 3.24321e-06L1.72549 0C0.77253 -8.33101e-08 7.24411e-07 0.772529 6.41101e-07 1.72549L0 9.05882C-1.28944e-06 17.2047 5.01754 24.1788 12.1306 27.0589Z" fill="#F38744"/>
<path d="M58.624 36V13.792H61.632V36H58.624ZM65.018 36V27.264C65.018 25.92 65.2953 24.7467 65.85 23.744C66.426 22.72 67.2047 21.92 68.186 21.344C69.1887 20.768 70.362 20.48 71.706 20.48C73.05 20.48 74.2127 20.768 75.194 21.344C76.1967 21.8987 76.9753 22.688 77.53 23.712C78.0847 24.736 78.362 25.92 78.362 27.264V36H75.482V27.488C75.482 26.2293 75.1513 25.2053 74.49 24.416C73.85 23.6267 72.922 23.232 71.706 23.232C70.49 23.232 69.5513 23.6267 68.89 24.416C68.2287 25.2053 67.898 26.2293 67.898 27.488V36H65.018ZM86.0865 36.32C85.2332 36.32 84.4225 36.2133 83.6545 36C82.9078 35.7653 82.2145 35.4453 81.5745 35.04C80.9345 34.6133 80.3798 34.112 79.9105 33.536L81.7665 31.68C82.3212 32.3627 82.9612 32.8747 83.6865 33.216C84.4118 33.536 85.2225 33.696 86.1185 33.696C87.0145 33.696 87.7078 33.5467 88.1985 33.248C88.6892 32.928 88.9345 32.4907 88.9345 31.936C88.9345 31.3813 88.7318 30.9547 88.3265 30.656C87.9425 30.336 87.4412 30.08 86.8225 29.888C86.2038 29.6747 85.5425 29.472 84.8385 29.28C84.1558 29.0667 83.5052 28.8 82.8865 28.48C82.2678 28.16 81.7558 27.7227 81.3505 27.168C80.9665 26.6133 80.7745 25.8773 80.7745 24.96C80.7745 24.0427 80.9985 23.2533 81.4465 22.592C81.8945 21.9093 82.5132 21.3867 83.3025 21.024C84.1132 20.6613 85.0838 20.48 86.2145 20.48C87.4092 20.48 88.4652 20.6933 89.3825 21.12C90.3212 21.5253 91.0892 22.144 91.6865 22.976L89.8305 24.832C89.4038 24.2773 88.8705 23.8507 88.2305 23.552C87.6118 23.2533 86.9078 23.104 86.1185 23.104C85.2865 23.104 84.6465 23.2533 84.1985 23.552C83.7718 23.8293 83.5585 24.224 83.5585 24.736C83.5585 25.248 83.7505 25.6427 84.1345 25.92C84.5185 26.1973 85.0198 26.432 85.6385 26.624C86.2785 26.816 86.9398 27.0187 87.6225 27.232C88.3052 27.424 88.9558 27.6907 89.5745 28.032C90.1932 28.3733 90.6945 28.832 91.0785 29.408C91.4838 29.984 91.6865 30.7413 91.6865 31.68C91.6865 33.1093 91.1745 34.24 90.1505 35.072C89.1478 35.904 87.7932 36.32 86.0865 36.32ZM101.279 36.32C100.361 36.32 99.5187 36.128 98.7507 35.744C98.0041 35.3387 97.4067 34.7627 96.9587 34.016C96.5107 33.248 96.2867 32.3093 96.2867 31.2V14.432H99.1667V31.136C99.1667 31.968 99.3801 32.5973 99.8067 33.024C100.255 33.4293 100.809 33.632 101.471 33.632C101.94 33.632 102.356 33.5467 102.719 33.376C103.103 33.2053 103.444 32.96 103.743 32.64L105.503 34.4C104.969 35.04 104.372 35.52 103.711 35.84C103.071 36.16 102.26 36.32 101.279 36.32ZM92.5427 23.488V20.8H104.831V23.488H92.5427ZM113.299 36.32C111.912 36.32 110.653 35.9787 109.523 35.296C108.392 34.592 107.496 33.6427 106.834 32.448C106.194 31.2533 105.874 29.9093 105.874 28.416C105.874 26.9227 106.194 25.5787 106.834 24.384C107.496 23.1893 108.381 22.24 109.49 21.536C110.621 20.832 111.891 20.48 113.299 20.48C114.451 20.48 115.475 20.7253 116.371 21.216C117.288 21.6853 118.024 22.3467 118.579 23.2C119.133 24.032 119.443 25.0027 119.507 26.112V30.688C119.443 31.776 119.133 32.7467 118.579 33.6C118.045 34.4533 117.32 35.1253 116.403 35.616C115.507 36.0853 114.472 36.32 113.299 36.32ZM113.779 33.6C115.208 33.6 116.36 33.12 117.235 32.16C118.109 31.1787 118.547 29.9307 118.547 28.416C118.547 27.3707 118.344 26.464 117.939 25.696C117.555 24.9067 117 24.2987 116.275 23.872C115.549 23.424 114.707 23.2 113.747 23.2C112.787 23.2 111.933 23.424 111.187 23.872C110.461 24.32 109.885 24.9387 109.458 25.728C109.053 26.496 108.851 27.3813 108.851 28.384C108.851 29.408 109.053 30.3147 109.458 31.104C109.885 31.872 110.472 32.48 111.219 32.928C111.965 33.376 112.819 33.6 113.779 33.6ZM118.355 36V31.904L118.899 28.192L118.355 24.512V20.8H121.267V36H118.355ZM130.099 42.72C128.777 42.72 127.571 42.4747 126.483 41.984C125.395 41.4933 124.531 40.8107 123.891 39.936C123.251 39.0613 122.931 38.048 122.931 36.896C122.931 36.0213 123.049 35.3067 123.283 34.752C123.539 34.1973 123.913 33.696 124.403 33.248L127.219 35.072C127.006 35.264 126.835 35.4987 126.707 35.776C126.601 36.0533 126.547 36.4053 126.547 36.832C126.547 37.5787 126.867 38.176 127.507 38.624C128.147 39.0933 129.011 39.328 130.099 39.328C131.273 39.328 132.179 39.0613 132.819 38.528C133.459 37.9947 133.779 37.2373 133.779 36.256C133.779 35.6373 133.63 35.0827 133.331 34.592C133.033 34.1013 132.617 33.7173 132.083 33.44C131.55 33.1413 130.942 32.992 130.259 32.992C129.065 32.992 127.987 32.7253 127.027 32.192C126.067 31.6373 125.31 30.8907 124.755 29.952C124.201 28.992 123.923 27.904 123.923 26.688C123.923 25.4507 124.201 24.3627 124.755 23.424C125.331 22.464 126.099 21.7067 127.059 21.152C128.041 20.5973 129.139 20.32 130.355 20.32C131.571 20.32 132.659 20.5867 133.619 21.12C134.601 21.6533 135.369 22.3787 135.923 23.296C136.499 24.192 136.787 25.216 136.787 26.368C136.787 27.52 136.51 28.544 135.955 29.44C135.422 30.3147 134.686 31.008 133.747 31.52C132.809 32.0107 131.731 32.256 130.515 32.256L130.323 30.368C131.71 30.368 132.926 30.6347 133.971 31.168C135.038 31.68 135.87 32.3947 136.467 33.312C137.086 34.2293 137.395 35.2853 137.395 36.48C137.395 37.7173 137.097 38.8053 136.499 39.744C135.902 40.6827 135.059 41.408 133.971 41.92C132.883 42.4533 131.593 42.72 130.099 42.72ZM130.355 29.696C130.974 29.696 131.507 29.568 131.955 29.312C132.425 29.056 132.787 28.704 133.043 28.256C133.299 27.7867 133.427 27.264 133.427 26.688C133.427 26.0907 133.299 25.568 133.043 25.12C132.787 24.672 132.425 24.32 131.955 24.064C131.507 23.808 130.974 23.68 130.355 23.68C129.737 23.68 129.193 23.808 128.723 24.064C128.275 24.32 127.923 24.672 127.667 25.12C127.411 25.568 127.283 26.0907 127.283 26.688C127.283 27.264 127.411 27.7867 127.667 28.256C127.923 28.704 128.286 29.056 128.755 29.312C129.225 29.568 129.758 29.696 130.355 29.696ZM134.771 24.48L132.595 22.304L136.307 18.56L138.483 20.736L134.771 24.48ZM139.817 36V20.64H143.337V36H139.817ZM143.337 27.456L142.121 26.848C142.121 24.9067 142.548 23.3387 143.401 22.144C144.276 20.928 145.588 20.32 147.337 20.32C148.105 20.32 148.798 20.4587 149.417 20.736C150.036 21.0133 150.612 21.4613 151.145 22.08L148.841 24.448C148.564 24.1493 148.254 23.936 147.913 23.808C147.572 23.68 147.177 23.616 146.729 23.616C145.748 23.616 144.937 23.9253 144.297 24.544C143.657 25.1627 143.337 26.1333 143.337 27.456ZM157.851 36.32C156.465 36.32 155.206 35.968 154.075 35.264C152.966 34.56 152.081 33.6107 151.419 32.416C150.779 31.2 150.459 29.8453 150.459 28.352C150.459 26.8373 150.779 25.4827 151.419 24.288C152.081 23.072 152.966 22.112 154.075 21.408C155.206 20.6827 156.465 20.32 157.851 20.32C159.025 20.32 160.059 20.576 160.955 21.088C161.873 21.5787 162.598 22.2613 163.131 23.136C163.665 24.0107 163.931 25.0027 163.931 26.112V30.528C163.931 31.6373 163.665 32.6293 163.131 33.504C162.619 34.3787 161.905 35.072 160.987 35.584C160.07 36.0747 159.025 36.32 157.851 36.32ZM158.427 32.992C159.729 32.992 160.774 32.5547 161.563 31.68C162.374 30.8053 162.779 29.6853 162.779 28.32C162.779 27.4027 162.598 26.592 162.235 25.888C161.873 25.184 161.361 24.64 160.699 24.256C160.059 23.8507 159.302 23.648 158.427 23.648C157.574 23.648 156.817 23.8507 156.155 24.256C155.515 24.64 155.003 25.184 154.619 25.888C154.257 26.592 154.075 27.4027 154.075 28.32C154.075 29.2373 154.257 30.048 154.619 30.752C155.003 31.456 155.515 32.0107 156.155 32.416C156.817 32.8 157.574 32.992 158.427 32.992ZM162.555 36V31.872L163.163 28.128L162.555 24.416V20.64H166.076V36H162.555ZM174.046 36.32C173.193 36.32 172.371 36.2133 171.582 36C170.793 35.7653 170.067 35.4453 169.406 35.04C168.745 34.6133 168.169 34.1013 167.678 33.504L169.918 31.264C170.451 31.8827 171.059 32.352 171.742 32.672C172.446 32.9707 173.235 33.12 174.11 33.12C174.899 33.12 175.497 33.0027 175.902 32.768C176.307 32.5333 176.51 32.192 176.51 31.744C176.51 31.2747 176.318 30.912 175.934 30.656C175.55 30.4 175.049 30.1867 174.43 30.016C173.833 29.824 173.193 29.632 172.51 29.44C171.849 29.248 171.209 28.992 170.59 28.672C169.993 28.3307 169.502 27.872 169.118 27.296C168.734 26.72 168.542 25.9733 168.542 25.056C168.542 24.0747 168.766 23.232 169.214 22.528C169.683 21.824 170.334 21.28 171.166 20.896C172.019 20.512 173.033 20.32 174.206 20.32C175.443 20.32 176.531 20.544 177.47 20.992C178.43 21.4187 179.23 22.0693 179.87 22.944L177.63 25.184C177.182 24.6293 176.67 24.2133 176.094 23.936C175.518 23.6587 174.857 23.52 174.11 23.52C173.406 23.52 172.862 23.6267 172.478 23.84C172.094 24.0533 171.902 24.3627 171.902 24.768C171.902 25.1947 172.094 25.5253 172.478 25.76C172.862 25.9947 173.353 26.1973 173.95 26.368C174.569 26.5387 175.209 26.7307 175.87 26.944C176.553 27.136 177.193 27.4133 177.79 27.776C178.409 28.1173 178.91 28.5867 179.294 29.184C179.678 29.76 179.87 30.5173 179.87 31.456C179.87 32.9493 179.347 34.1333 178.302 35.008C177.257 35.8827 175.838 36.32 174.046 36.32Z" fill="#431407"/>
</svg>
